<svg width="104" height="101" viewBox="0 0 104 101" fill="none" xmlns="http://www.w3.org/2000/svg">
<path d="M33.768 100.448C31.56 100.448 29.208 98.048 26.712 93.248C22.968 86.048 19.272 74.192 15.624 57.68C14.568 53.168 13.704 48.992 13.032 45.152C9.576 52.064 7.848 60.416 7.848 70.208V96.848C7.848 99.056 6.888 100.16 4.968 100.16C3.528 100.16 2.328 99.728 1.368 98.864C0.504 98.096 0.0720001 96.992 0.0720001 95.552V51.92C0.0720001 47.696 0.552 39.92 1.512 28.592C2.472 18.704 2.952 10.928 2.952 5.26399C3.72 3.43999 5.112 2.52799 7.128 2.52799C8.376 2.52799 9.432 2.95999 10.296 3.82399C11.16 4.68799 11.592 5.74399 11.592 6.992V7.424C10.344 9.53599 9.72 18.272 9.72 33.632V38.816L15.048 28.304C18.312 21.488 21.384 15.632 24.264 10.736C26.952 5.936 28.92 3.536 30.168 3.536C31.704 3.536 33 3.872 34.056 4.54399C35.208 5.216 35.784 6.176 35.784 7.424L32.328 13.184C25.128 24.8 21.096 31.52 20.232 33.344C20.232 34.976 20.184 36.416 20.088 37.664L19.944 41.984C19.944 46.112 21.576 53.84 24.84 65.168C28.2 76.4 30.984 83.84 33.192 87.488L35.064 90.08C36.888 92.576 37.8 94.784 37.8 96.704C37.8 97.76 37.368 98.624 36.504 99.296C35.736 100.064 34.824 100.448 33.768 100.448ZM52.7198 100.016C50.9918 99.728 49.5038 99.104 48.2558 98.144C47.1038 97.184 46.4318 95.936 46.2398 94.4L47.8238 91.952C48.3998 91.952 49.3118 92.144 50.5598 92.528C51.9998 92.816 53.1038 92.96 53.8718 92.96C55.5998 92.96 57.1358 92.192 58.4798 90.656C59.9198 89.12 60.9758 87.104 61.6478 84.608C62.8958 80 63.5198 75.872 63.5198 72.224C63.5198 65.888 61.5038 59.216 57.4718 52.208L55.8878 49.472C54.0638 46.304 52.5278 43.472 51.2798 40.976C50.0318 38.48 48.9758 35.792 48.1118 32.912C46.9598 29.168 46.3838 25.424 46.3838 21.68C46.3838 17.456 47.3438 13.04 49.2638 8.43199C50.2238 6.22399 51.5678 4.44799 53.2958 3.10399C55.1198 1.664 57.1358 0.943996 59.3438 0.943996C61.0718 0.943996 62.6558 1.51999 64.0958 2.67199C65.6318 3.72799 66.3998 5.024 66.3998 6.55999C66.3998 7.42399 66.0638 8.09599 65.3918 8.57599C64.7198 9.05599 63.9038 9.29599 62.9438 9.29599C61.8878 9.29599 60.8798 9.00799 59.9198 8.43199C57.8078 8.52799 56.1278 10.4 54.8798 14.048C53.8238 17.408 53.2958 20.192 53.2958 22.4C53.2958 25.184 53.7278 28.016 54.5918 30.896C55.4558 33.68 56.5598 36.224 57.9038 38.528L61.0718 44.288L66.1118 53.792C67.4558 56.48 68.5118 59.6 69.2798 63.152C70.1438 66.704 70.5758 70.304 70.5758 73.952C70.5758 79.808 69.2318 85.376 66.5438 90.656C65.1998 93.344 63.2798 95.504 60.7838 97.136C58.3838 98.768 55.6958 99.584 52.7198 99.584V100.016Z" fill="black"/>
<path d="M97.5139 31.184C96.2659 31.184 95.1619 30.656 94.2019 29.6C93.2419 28.544 92.7619 27.344 92.7619 26C92.7619 24.56 93.2899 23.264 94.3459 22.112C95.4019 20.96 96.6499 20.384 98.0899 20.384C99.4339 20.384 100.634 20.96 101.69 22.112C102.746 23.264 103.274 24.512 103.274 25.856C103.274 27.392 102.698 28.688 101.546 29.744C100.49 30.704 99.1459 31.184 97.5139 31.184ZM96.0739 85.616C94.8259 85.616 93.7219 85.088 92.7619 84.032C91.8019 82.976 91.3219 81.776 91.3219 80.432C91.3219 78.992 91.8499 77.696 92.9059 76.544C93.9619 75.392 95.2099 74.816 96.6499 74.816C97.9939 74.816 99.1459 75.392 100.106 76.544C101.162 77.6 101.69 78.848 101.69 80.288C101.69 81.824 101.162 83.12 100.106 84.176C99.0499 85.136 97.7059 85.616 96.0739 85.616Z" fill="#1DE6D9"/>
</svg>
